<mxfile host="app.diagrams.net" modified="2023-08-07T20:15:24.198Z" agent="Mozilla/5.0 (Macintosh; Intel Mac OS X 10_15_7) AppleWebKit/537.36 (KHTML, like Gecko) Chrome/115.0.0.0 Safari/537.36" version="21.6.6" etag="sNDvculCdmAUi1wh59se" type="github">
  <diagram name="Page-1" id="EllKu3JdDMA9Aqnl0Kva">
    <mxGraphModel>
      <root>
        <mxCell id="0" />
        <mxCell id="1" parent="0" />
      </root>
    </mxGraphModel>
  </diagram>
</mxfile>
